<svg xmlns="http://www.w3.org/2000/svg" viewBox="0 0 260.89 238.43"><defs><style>.cls-1{fill:#ffbf00;}</style></defs><title>Element 1</title><g id="Ebene_2" data-name="Ebene 2"><g id="Ebene_1-2" data-name="Ebene 1"><path class="cls-1" d="M129.33,71.38,70.66,37.51a2.28,2.28,0,0,1,1.26-4.25c14,.8,41.13,1.6,68.76-1.59,43-5,87.18-19.45,117.05-31.48a2.29,2.29,0,0,1,2,4.11L143.61,71.39A14.28,14.28,0,0,1,129.33,71.38ZM119.15,89.72,3.44,22.5A2.27,2.27,0,0,0,.9,26.26c25.37,19.85,59.48,51.05,85.32,85.86,16.58,22.33,29.44,46.21,35.76,58.74a2.28,2.28,0,0,0,4.31-1V102.08A14.27,14.27,0,0,0,119.15,89.72Zm28.29,12.46v134a2.28,2.28,0,0,0,4.53.31c4.51-31.89,14.11-77.19,31.34-117,11.05-25.52,25.3-48.6,33-60.34a2.28,2.28,0,0,0-3.05-3.22L154.58,89.82A14.29,14.29,0,0,0,147.44,102.18Z"/></g></g></svg>