<svg id="Layer_1" data-name="Layer 1" xmlns="http://www.w3.org/2000/svg" viewBox="0 0 199.82 268.71">
  <title>KULDIG_LOGO_kuldig_de_weiss</title>
  <g>
    <path d="M167,72.13a7,7,0,0,0-1.2-.66,6.87,6.87,0,0,0-2.76-.55,7.53,7.53,0,0,0-2.11.31,7.75,7.75,0,0,0-.94.39,5.93,5.93,0,0,0-.56.29A7.08,7.08,0,0,0,155.91,78V241h14.17V78a7.06,7.06,0,0,0-.56-2.76,7.37,7.37,0,0,0-1.06-1.74A6.79,6.79,0,0,0,167,72.13Z" transform="translate(-77.06 -42.47)" style="fill: #fff"/>
    <polygon points="60.16 241.66 54.36 241.66 54.36 267.96 70.94 267.96 70.94 262.62 60.16 262.62 60.16 241.66" style="fill: #fff"/>
    <path d="M120,284.14v15.94a6.22,6.22,0,0,1-.39,2.26,5.43,5.43,0,0,1-1.1,1.81,5.2,5.2,0,0,1-1.67,1.19,5.15,5.15,0,0,1-2.12.42,5.36,5.36,0,0,1-2.13-.42,5.18,5.18,0,0,1-1.7-1.19,5.41,5.41,0,0,1-1.09-1.81,6.22,6.22,0,0,1-.39-2.26V284.14h-5.8v16.13a12.86,12.86,0,0,0,.71,4.31,9.59,9.59,0,0,0,2.1,3.42,9.9,9.9,0,0,0,3.47,2.27,14.72,14.72,0,0,0,9.63,0A9.9,9.9,0,0,0,123,308a9.43,9.43,0,0,0,2.14-3.39,12.86,12.86,0,0,0,.71-4.31l0-16.16Z" transform="translate(-77.06 -42.47)" style="fill: #fff"/>
    <path d="M141.79,78a7.07,7.07,0,0,0-7.1-7.08,6.87,6.87,0,0,0-2.76.55,7.1,7.1,0,0,0-1.21.66,7,7,0,0,0-1.5,1.37,6.6,6.6,0,0,0-1.06,1.74A7.06,7.06,0,0,0,127.6,78V226.77h14.19Z" transform="translate(-77.06 -42.47)" style="fill: #fff"/>
    <polygon points="23.59 241.71 16.01 241.71 5.79 252.63 5.79 241.71 0 241.71 0 268 5.79 268 5.79 255.53 16.5 267.96 24.64 267.96 11.94 253.88 23.59 241.71" style="fill: #fff"/>
    <rect x="102.52" y="241.72" width="2.67" height="26.3" style="fill: #fff"/>
    <path d="M169.79,287.42a13.84,13.84,0,0,0-4.46-2.47,15.87,15.87,0,0,0-4.93-.81h-8.73v26.3h8.73a15.31,15.31,0,0,0,4.93-.82,13.63,13.63,0,0,0,4.46-2.46,12.86,12.86,0,0,0,3.21-4.11,14.06,14.06,0,0,0,0-11.5A12.56,12.56,0,0,0,169.79,287.42Zm.83,13.84a9.5,9.5,0,0,1-2.17,3.41,10.91,10.91,0,0,1-3.68,2.42,13.68,13.68,0,0,1-5.22.91h-5.2V286.59h5.2a13.68,13.68,0,0,1,5.22.91,10.73,10.73,0,0,1,3.68,2.41,9.67,9.67,0,0,1,2.17,3.43A11.36,11.36,0,0,1,170.62,301.26Z" transform="translate(-77.06 -42.47)" style="fill: #fff"/>
    <path d="M248.1,287.14a13.4,13.4,0,0,0-5-2.29,24.73,24.73,0,0,0-6-.7h-8.7v26.3h9.48a18.39,18.39,0,0,0,5.61-.85,14.51,14.51,0,0,0,4.72-2.51,12,12,0,0,0,3.25-4.09,12.45,12.45,0,0,0,1.25-5.63,13.78,13.78,0,0,0-1.25-6.13A11.24,11.24,0,0,0,248.1,287.14Zm-2.17,13.7a6.56,6.56,0,0,1-2,2.49,7.76,7.76,0,0,1-3,1.35,16.09,16.09,0,0,1-3.73.41h-3v-15.6h3.45a12.73,12.73,0,0,1,3.47.46,8.55,8.55,0,0,1,2.88,1.39,6.9,6.9,0,0,1,1.93,2.36,7.41,7.41,0,0,1,.72,3.37A8.89,8.89,0,0,1,245.93,300.84Z" transform="translate(-77.06 -42.47)" style="fill: #fff"/>
    <polygon points="185.56 257.27 196.94 257.27 196.94 251.93 185.56 251.93 185.56 247.03 197.64 247.03 197.64 241.68 179.77 241.68 179.77 267.98 198.31 267.98 198.31 262.63 185.56 262.63 185.56 257.27" style="fill: #fff"/>
    <path d="M106.3,99.17a4.68,4.68,0,0,0,.53,0A7.09,7.09,0,0,0,106.3,85a14.18,14.18,0,0,1,0-28.35H248A14.18,14.18,0,0,1,248,85a7.11,7.11,0,0,0,0,14.21v0c.35,0,.71,0,1.07,0A28.35,28.35,0,0,0,248,42.48H105.24a28.35,28.35,0,1,0,1.06,56.69Z" transform="translate(-77.06 -42.47)" style="fill: #fff"/>
    <path d="M198.43,78a7.06,7.06,0,0,0-.56-2.76,7.37,7.37,0,0,0-1.06-1.74,7.1,7.1,0,0,0-8.23-2,7,7,0,0,0-1.2.66,6.79,6.79,0,0,0-1.51,1.37,7.37,7.37,0,0,0-1.06,1.74,7.06,7.06,0,0,0-.56,2.76V226.82l14.18,0Z" transform="translate(-77.06 -42.47)" style="fill: #fff"/>
    <path d="M202.3,298h6.28v8.93a14.18,14.18,0,0,1-3.36,1.36,15.29,15.29,0,0,1-3.93.5,10.54,10.54,0,0,1-4.53-.93,10.31,10.31,0,0,1-3.4-2.49,11.15,11.15,0,0,1-2.14-3.62,13,13,0,0,1,0-8.66,11.15,11.15,0,0,1,2.14-3.62,10.31,10.31,0,0,1,3.4-2.49,11.64,11.64,0,0,1,8.85-.11,9.73,9.73,0,0,1,3.19,2.23l2-2a11.7,11.7,0,0,0-4.07-2.65,15.31,15.31,0,0,0-5.45-.88,13.9,13.9,0,0,0-5.44,1.05,13,13,0,0,0-7.22,7.24,15.14,15.14,0,0,0,0,11.08,13,13,0,0,0,7.22,7.24,14.08,14.08,0,0,0,5.44,1,20.26,20.26,0,0,0,5.08-.69,19.29,19.29,0,0,0,4.89-2l.05-12.94h-9Z" transform="translate(-77.06 -42.47)" style="fill: #fff"/>
    <path d="M222.66,304.86a3.19,3.19,0,0,0-1.09-.72,3.55,3.55,0,0,0-2.68,0,3.26,3.26,0,0,0-1.82,1.82,3.55,3.55,0,0,0,0,2.68,3.19,3.19,0,0,0,.72,1.09,3.48,3.48,0,0,0,3.78.73,3.38,3.38,0,0,0,1.82-1.82,3.48,3.48,0,0,0-.73-3.78Z" transform="translate(-77.06 -42.47)" style="fill: #fff"/>
    <path d="M221.79,71.23a7.19,7.19,0,0,0-2.11-.31,7,7,0,0,0-5.46,2.58,6.6,6.6,0,0,0-1.06,1.74A7.06,7.06,0,0,0,212.6,78V241h14.17l0-163A7.09,7.09,0,0,0,221.79,71.23Z" transform="translate(-77.06 -42.47)" style="fill: #fff"/>
  </g>
</svg>
